<svg xmlns="http://www.w3.org/2000/svg"><defs><linearGradient id="instagram_svg__a" x1="8.392%" x2="91.608%" y1="91.608%" y2="8.391%"><stop offset="0%" stop-color="#FFD600"/><stop offset="50%" stop-color="#FF0100"/><stop offset="100%" stop-color="#D800B9"/></linearGradient><linearGradient id="instagram_svg__b" x1="14.645%" x2="85.355%" y1="85.355%" y2="14.645%"><stop offset="0%" stop-color="#FF6400"/><stop offset="50%" stop-color="#FF0100"/><stop offset="100%" stop-color="#FD0056"/></linearGradient><linearGradient id="instagram_svg__c" x1="14.647%" x2="85.355%" y1="85.354%" y2="14.647%"><stop offset="0%" stop-color="#F30072"/><stop offset="100%" stop-color="#E50097"/></linearGradient></defs><g fill="none" fill-rule="evenodd"><path fill="#FFF" fill-opacity="0.01" stroke="#FFF" stroke-width="0.1" d="M.05.05h19.9v19.9H.05z" style=""/><g fill-rule="nonzero"><path fill="url(#instagram_svg__a)" d="M17.946 5.29c-.044-.959-.196-1.613-.419-2.185a4.396 4.396 0 0 0-1.038-1.594A4.411 4.411 0 0 0 14.895.472C14.323.25 13.67.098 12.711.054 11.75.01 11.444 0 9 0S6.25.01 5.29.054 3.676.25 3.104.473c-.6.225-1.145.58-1.594 1.038-.458.45-.813.993-1.039 1.594C.25 3.677.098 4.33.054 5.289.01 6.25 0 6.556 0 9c0 2.445.01 2.752.054 3.712.044.958.196 1.612.419 2.184.226.6.58 1.145 1.038 1.594.45.458.993.812 1.594 1.038.572.223 1.226.375 2.185.419C6.25 17.99 6.556 18 9 18s2.751-.01 3.71-.054c.959-.044 1.613-.196 2.185-.419a4.595 4.595 0 0 0 2.632-2.632c.223-.572.375-1.226.419-2.184C17.99 11.75 18 11.444 18 9s-.01-2.75-.054-3.71zm-1.62 7.347c-.04.877-.187 1.354-.31 1.671a2.98 2.98 0 0 1-1.708 1.708c-.317.123-.794.27-1.671.31-.95.043-1.234.052-3.637.052s-2.688-.009-3.637-.052c-.877-.04-1.354-.187-1.671-.31a2.789 2.789 0 0 1-1.035-.673 2.78 2.78 0 0 1-.673-1.035c-.123-.317-.27-.794-.31-1.671-.043-.95-.052-1.234-.052-3.637s.009-2.688.052-3.637c.04-.877.187-1.354.31-1.67.144-.392.374-.746.673-1.036a2.78 2.78 0 0 1 1.035-.673c.317-.123.794-.27 1.671-.31.95-.043 1.234-.052 3.637-.052s2.688.009 3.637.052c.877.04 1.354.187 1.67.31.392.144.745.374 1.036.673.299.29.529.644.673 1.035.123.317.27.794.31 1.671.043.95.052 1.234.052 3.637s-.009 2.688-.052 3.637z" transform="translate(1 1)" style=""/><path fill="url(#instagram_svg__b)" d="M9 4.378a4.622 4.622 0 1 0 0 9.244 4.622 4.622 0 0 0 0-9.244zM9 12a3 3 0 1 1 0-6 3 3 0 0 1 0 6z" transform="translate(1 1)" style=""/><path fill="url(#instagram_svg__c)" d="M14.884 4.196a1.08 1.08 0 1 1-2.16 0 1.08 1.08 0 0 1 2.16 0z" transform="translate(1 1)" style=""/></g></g></svg>