<svg xmlns="http://www.w3.org/2000/svg" class="mr-2"><path stroke="#000" d="M.014 4.411c.063-.072.07-.076.101-.095-.048.022-.07.033-.1.095zm.103-.096.003-.002zm16.828 1.619a1.875 1.875 0 0 0-.264-.896l-.052-.12L15.794 2H14.53V.9a.4.4 0 0 0-.4-.4H3.33c-.22 0-.4.18-.4.4V2H1.696l-.82 2.867-.027-.008a1.68 1.68 0 0 1-.07.18l.037-.042c-.553.89-.28 2.06.61 2.613l.054.032.25.144V17.1c0 .22.18.4.4.4h13.2a.4.4 0 0 0 .4-.4V7.782l.25-.145c.606-.35.975-1.002.965-1.703zM.78 5.04c-.034.072-.056.083-.108.107.03-.017.036-.023.108-.107zm-.108.107H.671l-.003.002.004-.002zM3.503 1a.198.198 0 0 1-.173.1h.2V1h-.027zm10.427.1h.2a.198.198 0 0 1-.173-.1h-.027v.1zM2.53.9a.8.8 0 0 1 .8-.8h10.8a.8.8 0 0 1 .8.8V2H2.53V.9zm8.8 17h-5.2v-6.8a.8.8 0 0 1 .8-.8h3.6a.8.8 0 0 1 .8.8v6.8zm4.8-.8a.8.8 0 0 1-.8.8h-4.4v-6.8a.4.4 0 0 0-.4-.4h-3.6c-.22 0-.4.18-.4.4v6.8h-4.4a.8.8 0 0 1-.8-.8V7.671l.628.166a1.88 1.88 0 0 0 2.133-.918l.437-.8.44.799a1.898 1.898 0 0 0 3.324 0l.438-.795.438.795a1.898 1.898 0 0 0 3.329-.009l.438-.804.44.804c.335.611.976.991 1.674.991h.037c.14-.003.28-.023.416-.06l.628-.165V17.1zm-.115-9.023a2.2 2.2 0 0 1-.917.223 2.3 2.3 0 0 1-2.16-1.377 2.303 2.303 0 0 1-4.208.017 2.302 2.302 0 0 1-4.2-.001A2.301 2.301 0 0 1 .13 6c0-.407.109-.807.316-1.158L.479 4.8l.914-3.2h14.704l.104.362.817 2.855c.202.335.315.716.329 1.116a2.334 2.334 0 0 1-1.332 2.144z"/><path d="M7.23 13.8h1v1h-1z"/></svg>