<svg xmlns="http://www.w3.org/2000/svg" style=""><g fill="none" fill-rule="evenodd"><path fill="#FFF" fill-opacity="0.01" stroke="#FFF" stroke-width="0.1" d="M.05.05h19.9v19.9H.05z" style=""/><path fill="#03A9F4" fill-rule="nonzero" d="M19 4.734a7.674 7.674 0 0 1-2.126.583 3.67 3.67 0 0 0 1.623-2.042c-.713.426-1.5.726-2.34.894A3.694 3.694 0 0 0 13.462 3a3.691 3.691 0 0 0-3.688 3.696c0 .293.025.574.085.843a10.446 10.446 0 0 1-7.606-3.865 3.7 3.7 0 0 0 1.135 4.938 3.643 3.643 0 0 1-1.668-.455v.04a3.711 3.711 0 0 0 2.957 3.631c-.3.082-.628.122-.968.122a3.3 3.3 0 0 1-.699-.063c.479 1.463 1.835 2.539 3.449 2.574a7.413 7.413 0 0 1-4.576 1.576c-.302 0-.593-.014-.883-.051a10.384 10.384 0 0 0 5.661 1.658c6.79 0 10.503-5.632 10.503-10.514 0-.164-.006-.321-.013-.478A7.367 7.367 0 0 0 19 4.734z" style=""/></g></svg>