<svg xmlns="http://www.w3.org/2000/svg" style=""><g fill="none" fill-rule="evenodd"><path fill="#FFF" fill-opacity="0.01" stroke="#FFF" stroke-width="0.1" d="M.05.05h19.9v19.9H.05z"/><g fill-rule="nonzero"><path fill="#F44336" d="M18.235 4.35c-.488-.984-1.018-1.165-2.097-1.234C15.06 3.034 12.35 3 10.002 3c-2.352 0-5.062.034-6.14.116-1.077.07-1.608.25-2.1 1.233C1.259 5.33 1 7.021 1 9.996v.01c0 2.963.259 4.666.762 5.637.492.983 1.022 1.161 2.099 1.244 1.078.071 3.789.113 6.141.113 2.348 0 5.058-.042 6.137-.112 1.079-.083 1.609-.26 2.097-1.243.508-.972.764-2.674.764-5.637v-.012c0-2.976-.256-4.667-.765-5.648z" style=""/><path fill="#FAFAFA" d="M7.828 14.2V6.5l5.586 3.85z" style=""/></g></g></svg>